/* XPM */
static char * eclipse_xpm[] = {
"48 48 121 2",
"  	c #A2A2A2",
". 	c #818181",
"+ 	c #656565",
"@ 	c #595959",
"# 	c #696969",
"$ 	c #797979",
"% 	c #919191",
"& 	c #9D9D9D",
"* 	c #A4A4A4",
"= 	c #151515",
"- 	c #000000",
"; 	c #0A0E0C",
"> 	c #2D2D2D",
", 	c #555555",
"' 	c #898989",
") 	c #343434",
"! 	c #030403",
"~ 	c #30463C",
"{ 	c #4A7260",
"] 	c #5B9078",
"^ 	c #578771",
"/ 	c #446758",
"( 	c #2F463C",
"_ 	c #1D2823",
": 	c #050505",
"< 	c #212121",
"[ 	c #717171",
"} 	c #494949",
"| 	c #55826E",
"1 	c #73BC9C",
"2 	c #71B798",
"3 	c #263830",
"4 	c #090909",
"5 	c #111111",
"6 	c #999999",
"7 	c #2A3C34",
"8 	c #6FB394",
"9 	c #22312A",
"0 	c #292929",
"a 	c #959595",
"b 	c #31493E",
"c 	c #72BC9B",
"d 	c #4E7865",
"e 	c #4D4D4D",
"f 	c #111815",
"g 	c #6EB193",
"h 	c #68A68A",
"i 	c #24332C",
"j 	c #060807",
"k 	c #525252",
"l 	c #858585",
"m 	c #71BA9A",
"n 	c #0C100E",
"o 	c #626262",
"p 	c #649F85",
"q 	c #0E1411",
"r 	c #18211D",
"s 	c #1C2220",
"t 	c #426555",
"u 	c #466C5B",
"v 	c #395649",
"w 	c #7D7D7D",
"x 	c #1D1D1D",
"y 	c #3E5E50",
"z 	c #6DAF91",
"A 	c #313131",
"B 	c #1B2621",
"C 	c #030404",
"D 	c #252525",
"E 	c #C9C9C9",
"F 	c #3D3D3D",
"G 	c #0D0D0D",
"H 	c #67A288",
"I 	c #B8B8B8",
"J 	c #FFFFFF",
"K 	c #F1F1F1",
"L 	c #B1B1B1",
"M 	c #454545",
"N 	c #53826D",
"O 	c #414141",
"P 	c #191919",
"Q 	c #FDFDFD",
"R 	c #F9F9F9",
"S 	c #D9D9D9",
"T 	c #EDEDED",
"U 	c #ADADAD",
"V 	c #757575",
"W 	c #52806B",
"X 	c #619980",
"Y 	c #BDBDBD",
"Z 	c #5D5D5D",
"` 	c #476C5C",
" .	c #D6D6D6",
"..	c #D1D1D1",
"+.	c #446858",
"@.	c #6FB596",
"#.	c #C1C1C1",
"$.	c #141B18",
"%.	c #161D1A",
"&.	c #6BAC8F",
"*.	c #354D43",
"=.	c #CCCCCC",
"-.	c #C5C5C5",
";.	c #5B8D77",
">.	c #527E6B",
",.	c #283B32",
"'.	c #70B596",
").	c #639D84",
"!.	c #6F6F6F",
"~.	c #E6E6E6",
"{.	c #E8E8E8",
"].	c #E2E2E2",
"^.	c #66A187",
"/.	c #588974",
"(.	c #A9A9A9",
"_.	c #507B68",
":.	c #393939",
"<.	c #B4B4B4",
"[.	c #F5F5F5",
"}.	c #8E8E8E",
"|.	c #DEDEDE",
"                        . + @ # $ % & * * * *                                                   ",
"      * * * * *     # = - - - - - - ; > , '   *                                                 ",
"      *   * * * & ) - ! ~ { ] ^ / ( _ : - - < [                                                 ",
"      * * * * * } - ! | 1 1 1 1 1 1 1 2 ^ 3 4 - 5 #                   & 6 &                     ",
"      *   * *   5 - 7 1 1 1 1 1 1 1 1 1 1 1 8 { 9 - 0 .             # 5 : ) a                   ",
"      * * * *   = - b 1 1 1 1 1 1 1 1 1 1 1 1 c c d ; 4 .       * e - 4 #                       ",
"      *   * * * @ - f g 1 1 1 1 1 1 1 1 1 1 1 1 c c h i j #     k - 5 l                         ",
"      * * * *     0 - ( 1 1 c 1 1 1 1 1 1 1 1 c 1 c m 1 { n o o ! ; l                           ",
"        *     *   6 0 - b 2 1 1 1 1 1 1 1 1 1 1 c c c m c p q - - ! 4 ) # 6                     ",
"      * * * *   * *   @ ! r ^ c 1 1 1 1 1 1 1 c 1 c m c c c ] s t u v 9 ; ; e &                 ",
"        * * * *   * * * w x - r y h c 1 1 1 1 c c c c m m c c 1 c m m m z y ; x $               ",
"      * * * * * * *   * *   A - - ! 9 d z 1 1 c 1 c m c c c m m m c m m m c h B : w             ",
"  *   *   * * * * * * * * $ C D E w F G ! 3 t p c c c m m c c c m c c c c m m H 4 = a           ",
"*   * * * * * * * * * * . G ! I J J K L & M G ! 3 N 2 c c c m c c c c m c c c c b - O           ",
"  * *   * * * * * * * & P - o Q R & x x S J T U V > r W 2 c c c m c c c c m c c X - G           ",
"* * * * * * * * * *   F - > K R M F Y R J J J J J R L Z s ` 8 c c c c m c c c c c B ! a         ",
"  * * * * * * * * * + - - L J J  .R J J J J J J J E = Y ..0 q +.@.c c c c m c c c b ! %         ",
"* * * * * * * *   6 5 - O Q J J J J J J J J J J J T @ D R #.- $.%.&.c c c c c c c *.4 &         ",
"  * * * * * * *   F - - =.J J J J J J J J J J J J J R e -.R x ;.>.*.c c c c c c c ,.=           ",
"* * * * * * *   V - - k Q J J J J J J J J J J J J Q Q #.* Q l b c | '.c c c m c m $.A           ",
"  * * * * * * & P - 4  .J J J J J J J J J J J J J J Q Q Q Q * : ).c c m c c c c X - +           ",
"* * * * * *   O - - !.~.$ } !.T J J J J J J J J J J Q Q Q J # - ~ c c c c c m 1 v P             ",
"  * * * * * w - - x {.} L ].6 V J J J J J J J J J J Q Q Q R D - ! ^.m c c c c /.j [             ",
"      * *   > - - (.#.' Q Q Q F J J Q J J J J J Q Q Q Q Q  .- - A f _.2 c m /.n F               ",
"      * * . - - M Q U , D * ].e Q J J J J J J J J J Q Q Q % - - Z [ n 4 %.n ! }                 ",
"      * * F - ! #.J =.C - :.M <.J J J J J J J [.K Q Q Q Q Z - - 4 l 6 + , # }.                  ",
"      * & 4 - M Q Q Q l G :.[ =.Q J J J J J & > D , K Q K = - - - 5 6                           ",
"        . - - I Q J Q J R & e Q J J J J R Y Z [.[.< 6 Q (.n O = - - #                           ",
"      * V - :.Q Q Q J J <.5  .Q J Q J J ' 0 Z M -.M }.Q } -.Q T < - A                           ",
"        & Z ..Q J J J ~.5 }.J Q J J J Q . - - - > 0 ].{.<.Q Q Q $ - P                           ",
"      *     K J J J Q e ) R Q J J Q J J }.A # F $ {.Q Q Q Q Q Q l - 0                           ",
"      * * * L J J Q <.- L J J J J J J J % D Q J J J Q Q Q Q Q Q M - Z                           ",
"      * * * O [.J Q F > R J Q J J J J J a G T J Q J Q Q Q Q Q & ! 5 6                           ",
"      * *   O =.J Y ! % J J J J J J J J % ! S J J J Q Q Q R ' : 5 w                             ",
"      * * * @ + Q ' C |.Q J J J J J J J w - -.J J J Q Q -.:.4 } 6                               ",
"      * *   w : #.@ > Q J J J J J J J Q Z - #.J J J Q K % [ 6 *                                 ",
"      *   *   P 5 G @ Q J J J J J J J J F - ..Q J J {.@ & *                                     ",
"      * *   * o - - l J J J J J J J Q K G = K J J L < #                                         ",
"      * * *     0 - (.J Q J J J J J J E - Z Q E , j ,     *                                     ",
"      * * *     e - Y J J J J J J J J + - + F - n V                                             ",
"      * * * *   k - Y J J J J J J J {.5 - - - A a *   *                                         ",
"      * * * * * e - -.J J J J J J J + - - : o   * *                                             ",
"      * * * * * @ - L J J J J J J Y ! = M }.* * * *                                             ",
"      * * * *   # - } Q J J J J |.< = 6 * * * * * *                                             ",
"      * * * * * a j - w R Q J  .0 ! .   *   * * *                                               ",
"      * * * * *   e - - < + O ! : Z *   * * * *                                                 ",
"      *   * *   * & e j - - 4 F ' * * * * * * *                                                 ",
"      * * * *     * * 6 $ w 6 * * * * * * *                                                     "};
